inDegrees=yes
name=ik_S55_A07_T02
DataType=double
version=3
OpenSimVersion=4.3-2021-08-27-4bc7ad9
endheader
time	pelvis_tilt	pelvis_list	pelvis_rotation	pelvis_tx	pelvis_ty	pelvis_tz	hip_flexion_r	hip_adduction_r	hip_rotation_r	knee_angle_r	knee_angle_r_beta	ankle_angle_r	subtalar_angle_r	mtp_angle_r	hip_flexion_l	hip_adduction_l	hip_rotation_l	knee_angle_l	knee_angle_l_beta	ankle_angle_l	subtalar_angle_l	mtp_angle_l	lumbar_extension	lumbar_bending	lumbar_rotation	arm_flex_r	arm_add_r	arm_rot_r	elbow_flex_r	pro_sup_r	wrist_flex_r	wrist_dev_r	arm_flex_l	arm_add_l	arm_rot_l	elbow_flex_l	pro_sup_l	wrist_flex_l	wrist_dev_l
6.679999999999946	-3.993667790944932	-0.816930854105845	21.20002726222096	0	0.9399999999999999	0	38.50322480813062	-13.68800262703277	-11.31872486963313	50.7385291668383	0.8855543915805036	0	0	0	38.50322480813062	-13.68800262703277	-11.31872486963313	50.7385291668383	0.8855543915805036	0	0	0	-3.902583622289288	-1.630382138314691	0.7159845471391172	52.03107657824805	-11.60509777689015	10.79038001420032	72.32810471601339	105.1051350881915	0	0	16.71967764760611	-19.53675285264232	-6.80050450514286	67.5925393464496	135.3038482491754	0	0
6.699999999999945	-3.993362940056368	-0.8158049682534627	21.22262483223985	0	0.9399999999999999	0	38.50575893766199	-13.6829828029054	-11.31758160823878	50.73964061657668	0.8855737900379087	0	0	0	38.50575893766199	-13.6829828029054	-11.31758160823878	50.73964061657668	0.8855737900379087	0	0	0	-3.902446832718618	-1.626083269514733	0.6788114370257214	51.98490880117686	-11.26249362450689	10.72184232729431	72.21801898136722	105.3164628388431	0	0	16.71430443332084	-19.5360905426213	-6.811858515480404	67.60810413836488	135.3169517444526	0	0
6.719999999999945	-3.981506664093869	-0.8346292732720282	21.22270924637455	0	0.9399999999999999	0	38.50702536378955	-13.68050124956357	-11.31701421788984	50.74020146113232	0.8855835786219967	0	0	0	38.50702536378955	-13.68050124956357	-11.31701421788984	50.74020146113232	0.8855835786219967	0	0	0	-3.898824194271767	-1.644604287294307	0.6366635820324966	51.96164910709148	-10.9502830983057	10.53832936957777	72.14390448070836	105.1993052889742	0	0	16.71546639516949	-19.61756516726905	-6.908420548827803	67.58745793293517	135.3354837521511	0	0
6.739999999999944	-3.973920832779968	-0.8501097581090713	21.18547480000304	0	0.9399999999999999	0	38.50899893013359	-13.67661677882356	-11.31612736749482	50.74107146553667	0.8855987630633594	0	0	0	38.50899893013359	-13.67661677882356	-11.31612736749482	50.74107146553667	0.8855987630633594	0	0	0	-3.897671285005679	-1.65943258810048	0.6101776332112339	51.99202214930981	-10.65984555181958	10.28812030745634	71.9557794753905	105.0870742909201	0	0	16.68115864217519	-19.68178778072197	-7.010636999178629	67.60911108077093	135.3282896857346	0	0
6.759999999999944	-3.965221610136859	-0.8555801268064716	21.15202004006397	0	0.9399999999999999	0	38.51064173877502	-13.67338605072202	-11.3153894549979	50.74179578137799	0.8856114047596149	0	0	0	38.51064173877502	-13.67338605072202	-11.3153894549979	50.74179578137799	0.8856114047596149	0	0	0	-3.891349530379627	-1.668218784303946	0.6222683061201002	52.05259377738194	-10.44990805262954	10.01159616023233	71.76539037362515	105.0928910209277	0	0	16.66852941183033	-19.68533360923492	-6.982791328939011	67.61185570378758	135.3349328060862	0	0
6.779999999999943	-3.960062896177036	-0.8659262821095495	21.11585076540124	0	0.9399999999999999	0	38.51269408924301	-13.669349204998	-11.31446737723726	50.7427000478387	0.8856271871866694	0	0	0	38.51269408924301	-13.669349204998	-11.31446737723726	50.7427000478387	0.8856271871866694	0	0	0	-3.890488041535107	-1.67818780839482	0.6068169294676167	52.17437499234561	-10.18702377842306	9.812169206926111	71.52016106121971	105.1877706342977	0	0	16.65113220670355	-19.72262219178366	-7.03570476947208	67.6018849708569	135.3327841656054	0	0
6.799999999999943	-3.969260196790266	-0.8692125981381857	21.0904474213379	0	0.9399999999999999	0	38.5145910120748	-13.66562607670207	-11.31361620650328	50.74353700402463	0.8856417948278089	0	0	0	38.5145910120748	-13.66562607670207	-11.31361620650328	50.74353700402463	0.8856417948278089	0	0	0	-3.900527928584567	-1.676315063977835	0.5906580583734758	52.37716281708274	-10.04202038582212	9.772296890122101	71.40517326621445	105.3825615196524	0	0	16.69202976842637	-19.72149759197426	-7.053149047004269	67.59286741854717	135.345041961553	0	0
